<?xml version="1.0" encoding="UTF-8" standalone="no"?>
<!-- Created with Inkscape (http://www.inkscape.org/) -->

<svg
   width="158.13591mm"
   height="180.01361mm"
   viewBox="0 0 158.13591 180.01361"
   version="1.1"
   id="svg5"
   sodipodi:docname="q_commerce_logo.svg"
   inkscape:version="1.2.1 (9c6d41e410, 2022-07-14)"
   xmlns:inkscape="http://www.inkscape.org/namespaces/inkscape"
   xmlns:sodipodi="http://sodipodi.sourceforge.net/DTD/sodipodi-0.dtd"
   xmlns="http://www.w3.org/2000/svg"
   xmlns:svg="http://www.w3.org/2000/svg">
  <sodipodi:namedview
     id="namedview7"
     pagecolor="#ffffff"
     bordercolor="#904E55"
     borderopacity="0.25"
     inkscape:showpageshadow="2"
     inkscape:pageopacity="0.0"
     inkscape:pagecheckerboard="0"
     inkscape:deskcolor="#d1d1d1"
     inkscape:document-units="mm"
     showgrid="true"
     inkscape:zoom="0.32"
     inkscape:cx="128.125"
     inkscape:cy="100"
     inkscape:window-width="1350"
     inkscape:window-height="949"
     inkscape:window-x="2752"
     inkscape:window-y="51"
     inkscape:window-maximized="0"
     inkscape:current-layer="layer1"
     inkscape:lockguides="false"
     showguides="true">
    <inkscape:grid
       type="xygrid"
       id="grid2731"
       originx="-30.472538"
       originy="-54.879289" />
    <sodipodi:guide
       position="73.595534,105.68479"
       orientation="0,-1"
       id="guide2733"
       inkscape:locked="false" />
    <sodipodi:guide
       position="-84.845181,106.8541"
       orientation="1,0"
       id="guide2785"
       inkscape:locked="false" />
    <sodipodi:guide
       position="72.426234,106.26944"
       orientation="1,0"
       id="guide2787"
       inkscape:locked="false" />
  </sodipodi:namedview>
  <defs
     id="defs2" />
  <g
     inkscape:label="Layer 1"
     inkscape:groupmode="layer"
     id="layer1"
     transform="translate(-30.472537,-54.879289)">
    <path
       id="path1520"
       style="fill:#904E55;fill-rule:nonzero;stroke:#904E55;stroke-width:0.264583"
       d="m 101.66821,55.011629 a 71.145164,72.209671 0 0 0 -71.06336,72.265361 71.145164,72.209671 0 0 0 71.1724,72.15425 71.145164,72.209671 0 0 0 71.11814,-72.20955 l -5.2e-4,-0.1111 A 71.145164,72.209671 0 0 0 101.66821,55.011629 Z m 0.0336,28.166756 A 41.764587,44.043163 0 0 1 143.51475,127.154 v 0.0677 A 41.764587,44.043163 0 0 1 101.76588,171.26448 41.764587,44.043163 0 0 1 59.985486,127.25528 41.764587,44.043163 0 0 1 101.7018,83.178385 Z" />
    <rect
       style="fill:#904E55;fill-opacity:1;fill-rule:nonzero;stroke:#904E55;stroke-width:0.200171"
       id="rect2540-0"
       width="84.87162"
       height="28.245592"
       x="103.63674"
       y="206.54723"
       inkscape:transform-center-x="-41.6849"
       inkscape:transform-center-y="-0.54179739" />
  </g>
</svg>
