<?xml version="1.0" encoding="UTF-8" standalone="no"?>
<!-- Created with Inkscape (http://www.inkscape.org/) -->

<svg
   width="148.57697mm"
   height="177.5946mm"
   viewBox="0 0 148.57697 177.5946"
   version="1.1"
   id="svg5"
   xmlns="http://www.w3.org/2000/svg"
   xmlns:svg="http://www.w3.org/2000/svg">
  <defs
     id="defs2" />
  <g
     id="layer1"
     transform="translate(-39.235161,-54.879289)">
    <path
       id="path1520"
       style="fill:#000000;fill-rule:nonzero;stroke:#000000;stroke-width:0.264583"
       d="m 110.43083,55.011629 a 71.145164,72.209671 0 0 0 -71.063356,72.265361 71.145164,72.209671 0 0 0 71.172396,72.15425 71.145164,72.209671 0 0 0 71.11814,-72.20955 l -5.2e-4,-0.1111 A 71.145164,72.209671 0 0 0 110.43083,55.011629 Z m 0.0279,24.809855 a 46.701241,47.400013 0 0 1 46.75528,47.327346 v 0.0729 a 46.701241,47.400013 0 0 1 -46.68345,47.39969 46.701241,47.400013 0 0 1 -46.71911,-47.36351 46.701241,47.400013 0 0 1 46.64728,-47.436386 z" />
    <rect
       style="fill:#000000;fill-opacity:1;fill-rule:nonzero;stroke:#000000;stroke-width:0.197153"
       id="rect2540"
       width="88.889175"
       height="26.161951"
       x="98.824371"
       y="206.21336" />
  </g>
</svg>
